<svg xmlns="http://www.w3.org/2000/svg" width="1700" height="960" viewBox="0 0 1700 960" preserveAspectRatio="none">
  <defs>
    <linearGradient id="top" x1="0" y1="0" x2="0" y2="1"><stop offset="0" stop-color="#8f8b96"/><stop offset="1" stop-color="#a9a5ae"/></linearGradient>
    <linearGradient id="wall" x1="0" y1="0" x2="0" y2="1"><stop offset="0" stop-color="#5a4a7a"/><stop offset="1" stop-color="#3f3258"/></linearGradient>
    <linearGradient id="table" x1="0" y1="0" x2="0" y2="1"><stop offset="0" stop-color="#d4a46a"/><stop offset="1" stop-color="#b98447"/></linearGradient>
    <linearGradient id="edge" x1="0" y1="0" x2="0" y2="1"><stop offset="0" stop-color="#8a5a2c"/><stop offset="1" stop-color="#5e3b1c"/></linearGradient>
    <linearGradient id="floor" x1="0" y1="0" x2="1" y2="0"><stop offset="0" stop-color="#4b6a60"/><stop offset=".5" stop-color="#3d5a6e"/><stop offset="1" stop-color="#4a4f72"/></linearGradient>
    <filter id="blur"><feGaussianBlur stdDeviation="22"/></filter>
    <pattern id="paper" width="70" height="12" patternUnits="userSpaceOnUse"><rect width="35" height="12" fill="#fff" opacity=".03"/></pattern>
  </defs>
  <rect width="1700" height="240" fill="url(#top)"/>
  <rect y="240" width="1700" height="442" fill="url(#wall)"/>
  <rect y="240" width="1700" height="442" fill="url(#paper)"/>
  <rect y="236" width="1700" height="8" fill="#2c2340" opacity=".5"/>
  <rect y="760" width="1700" height="200" fill="url(#floor)"/>
  <g filter="url(#blur)" opacity=".7">
    <ellipse cx="300" cy="860" rx="260" ry="70" fill="#6f8f5a"/>
    <ellipse cx="900" cy="880" rx="320" ry="60" fill="#3b6f9a"/>
    <ellipse cx="1450" cy="850" rx="240" ry="70" fill="#7a5a8a"/>
  </g>
  <rect y="664" width="1700" height="40" fill="url(#table)"/>
  <rect y="664" width="1700" height="5" fill="#e8bf86"/>
  <rect y="704" width="1700" height="58" fill="url(#edge)"/>
  <rect y="704" width="1700" height="4" fill="#3a2410" opacity=".6"/>
</svg>